<?xml version="1.0" encoding="UTF-8" standalone="no"?>
<!-- Created with Inkscape (http://www.inkscape.org/) -->

<svg
   width="210mm"
   height="297mm"
   viewBox="0 0 210 297"
   version="1.1"
   id="svg1"
   inkscape:version="1.3 (0e150ed6c4, 2023-07-21)"
   sodipodi:docname="logo.svg"
   xmlns:inkscape="http://www.inkscape.org/namespaces/inkscape"
   xmlns:sodipodi="http://sodipodi.sourceforge.net/DTD/sodipodi-0.dtd"
   xmlns="http://www.w3.org/2000/svg"
   xmlns:svg="http://www.w3.org/2000/svg">
  <sodipodi:namedview
     id="namedview1"
     pagecolor="#ffffff"
     bordercolor="#000000"
     borderopacity="0.25"
     inkscape:showpageshadow="2"
     inkscape:pageopacity="0.0"
     inkscape:pagecheckerboard="0"
     inkscape:deskcolor="#d1d1d1"
     inkscape:document-units="mm"
     inkscape:zoom="2.2023413"
     inkscape:cx="341.68183"
     inkscape:cy="560.08577"
     inkscape:window-width="1920"
     inkscape:window-height="986"
     inkscape:window-x="-11"
     inkscape:window-y="-11"
     inkscape:window-maximized="1"
     inkscape:current-layer="layer1" />
  <defs
     id="defs1" />
  <g
     inkscape:label="Calque 1"
     inkscape:groupmode="layer"
     id="layer1">
    <path
       d="m 64.905391,140.84329 -2.131652,5.94693 h 4.255032 z"
       style="font-size:16.6624px;line-height:1.4;font-family:Sans;-inkscape-font-specification:'Sans, Normal';text-align:justify;letter-spacing:7.23029px;word-spacing:0px;stroke:#ffffff;stroke-width:0.499998;stroke-linejoin:bevel;fill:#0066ff"
       id="path9"
       inkscape:export-filename="..\logo.png"
       inkscape:export-xdpi="96"
       inkscape:export-ydpi="96" />
    <path
       d="m 51.249096,140.72315 -2.131653,5.94693 h 4.255037 z"
       style="font-size:16.6624px;line-height:1.4;font-family:Sans;-inkscape-font-specification:'Sans, Normal';text-align:justify;letter-spacing:7.23029px;word-spacing:0px;stroke:#ffffff;stroke-width:0.499998;stroke-linejoin:bevel;fill:#000000"
       id="path8"
       inkscape:export-filename="path8.png"
       inkscape:export-xdpi="96"
       inkscape:export-ydpi="96" />
    <path
       d="m 76.847683,139.55576 v 12.1145 h 7.98091 v -1.43195 h -6.37016 v -4.49947 h 6.37016 v -1.43195 h -6.37016 v -3.31918 h 6.37016 v -1.43195 z"
       style="font-size:16.6624px;line-height:1.4;font-family:Sans;-inkscape-font-specification:'Sans, Normal';text-align:justify;letter-spacing:7.23029px;word-spacing:0px;stroke:#ffffff;stroke-width:0.499998;stroke-linejoin:bevel;fill:#0066ff"
       id="path6" />
    <path
       d="m 68.926218,139.55576 v 12.1145 h 1.50533 V 140.8332 l 5.74384,10.83706 h 1.99367 v -12.1145 h -1.50533 v 9.89345 l -5.23947,-9.89345 z"
       style="font-size:16.6624px;line-height:1.4;font-family:Sans;-inkscape-font-specification:'Sans, Normal';text-align:justify;letter-spacing:7.23029px;word-spacing:0px;stroke:#ffffff;stroke-width:0.499998;stroke-linejoin:bevel;fill:#0066ff"
       id="path5" />
    <path
       d="m 63.871863,139.43563 -4.40955,12.1145 h 1.635042 l 1.188041,-3.37654 h 5.239475 l 1.18804,3.37654 h 1.71669 l -4.410066,-12.1145 z m 1.033528,1.40766 2.12338,5.94693 h -4.255032 z"
       style="font-size:16.6624px;line-height:1.4;font-family:Sans;-inkscape-font-specification:'Sans, Normal';text-align:justify;letter-spacing:7.23029px;word-spacing:0px;stroke:#ffffff;stroke-width:0.499998;stroke-linejoin:bevel;fill:#0066ff"
       id="path4" />
    <path
       d="m 53.161254,139.31549 4.279325,6.97218 v 5.14232 h 1.610755 v -5.31285 l 4.263305,-6.80165 h -1.716691 l -3.343982,5.41827 -3.310909,-5.41827 z"
       style="font-size:16.6624px;line-height:1.4;font-family:Sans;-inkscape-font-specification:'Sans, Normal';text-align:justify;letter-spacing:7.23029px;word-spacing:0px;stroke:#ffffff;stroke-width:0.499998;stroke-linejoin:bevel;fill:#000000"
       id="path3" />
    <path
       d="m 50.215567,139.31549 -4.40955,12.1145 h 1.635042 l 1.188041,-3.37654 h 5.239474 l 1.188041,3.37654 h 1.716691 l -4.40955,-12.1145 z m 1.033529,1.40766 2.123384,5.94693 h -4.255037 z"
       style="font-size:16.6624px;line-height:1.4;font-family:Sans;-inkscape-font-specification:'Sans, Normal';text-align:justify;letter-spacing:7.23029px;word-spacing:0px;stroke:#ffffff;stroke-width:0.499998;stroke-linejoin:bevel;fill:#000000"
       id="path2" />
    <path
       d="m 40.659534,138.83494 v 12.1145 h 1.611271 v -4.81676 h 2.269629 l 4.051949,4.81676 h 2.090828 L 46.1269,145.65261 c 0.192551,-0.0746 0.374865,-0.15809 0.546737,-0.25063 0.171871,-0.0926 0.333532,-0.19386 0.484725,-0.30438 0.151192,-0.11051 0.292199,-0.23015 0.422713,-0.35863 0.130514,-0.12848 0.25035,-0.26593 0.360185,-0.41238 0.109835,-0.1478 0.205978,-0.30431 0.288354,-0.46974 0.08238,-0.16543 0.151272,-0.3399 0.206189,-0.52296 0.05492,-0.18306 0.09605,-0.37499 0.123507,-0.57568 0.02746,-0.20069 0.04134,-0.41007 0.04134,-0.62838 0,-0.16137 -0.0082,-0.31538 -0.02377,-0.46251 -0.01559,-0.14712 -0.03858,-0.28724 -0.06976,-0.42013 -0.03119,-0.13288 -0.07052,-0.25859 -0.117306,-0.37724 -0.04678,-0.11864 -0.101439,-0.23045 -0.163814,-0.33486 -0.122039,-0.21153 -0.268395,-0.40437 -0.43925,-0.57929 -0.170854,-0.17492 -0.365824,-0.33194 -0.585494,-0.47026 -0.195262,-0.12203 -0.403031,-0.22495 -0.622701,-0.30902 -0.21967,-0.0841 -0.451487,-0.14924 -0.695565,-0.19534 -0.244078,-0.0488 -0.518625,-0.0851 -0.823722,-0.10955 -0.305097,-0.0244 -0.64054,-0.0367 -1.006657,-0.0367 z m 1.611271,1.38286 h 1.895491 c 0.216959,0 0.41975,0.009 0.608232,0.0248 0.188482,0.0163 0.362959,0.0403 0.522965,0.0729 0.160007,0.0298 0.308691,0.0718 0.447002,0.12609 0.13831,0.0542 0.26579,0.12082 0.382405,0.19947 0.141023,0.0922 0.261909,0.19512 0.362252,0.30902 0.100343,0.11391 0.180115,0.23854 0.239779,0.37414 0.06237,0.13289 0.109372,0.2762 0.14056,0.42943 0.03119,0.15323 0.04703,0.31684 0.04703,0.49041 0,0.22781 -0.01513,0.43577 -0.04496,0.62425 -0.02983,0.18848 -0.07469,0.35727 -0.134359,0.50643 -0.05695,0.14645 -0.13013,0.28479 -0.219625,0.41496 -0.0895,0.13018 -0.195254,0.25197 -0.317293,0.36587 -0.132887,0.12204 -0.279954,0.22547 -0.441317,0.30954 -0.161362,0.0841 -0.336745,0.14924 -0.526583,0.19534 -0.189838,0.0434 -0.396185,0.0755 -0.618567,0.0971 -0.222382,0.0217 -0.460793,0.0326 -0.715718,0.0326 h -1.627291 z"
       style="font-size:16.6624px;line-height:1.4;font-family:Sans;-inkscape-font-specification:'Sans, Normal';text-align:justify;letter-spacing:7.23029px;word-spacing:0px;stroke:#ffffff;stroke-width:0.499998;stroke-linejoin:bevel;fill:#000000"
       id="path1" />
  </g>
</svg>
